<?xml version="1.0" standalone="no"?>
<!DOCTYPE svg PUBLIC "-//W3C//DTD SVG 20010904//EN"
 "http://www.w3.org/TR/2001/REC-SVG-20010904/DTD/svg10.dtd">
<svg version="1.0" xmlns="http://www.w3.org/2000/svg"
 width="550.000000pt" height="550.000000pt" viewBox="0 0 550.000000 550.000000"
 preserveAspectRatio="xMidYMid meet">
<metadata>
Created by potrace 1.14, written by Peter Selinger 2001-2017
</metadata>
<g transform="translate(0.000000,550.000000) scale(0.100000,-0.100000)"
fill="#000000" stroke="none">
<path d="M2485 5459 c-434 -40 -849 -187 -1220 -434 -126 -83 -320 -239 -385
-309 l-24 -27 89 -89 89 -89 68 62 c198 178 370 295 590 402 336 163 653 235
1033 235 379 0 694 -72 1030 -234 225 -108 387 -218 581 -392 l81 -73 88 89
89 89 -24 27 c-43 45 -212 188 -290 245 -519 378 -1162 556 -1795 498z"/>
<path d="M2572 5029 c-419 -27 -845 -188 -1182 -447 -105 -81 -220 -184 -220
-197 0 -6 40 -50 88 -98 l88 -87 39 41 c166 171 470 354 728 438 492 160 1012
125 1464 -98 180 -89 379 -228 488 -340 l39 -41 88 87 c48 48 88 91 88 96 0
13 -98 103 -195 179 -434 340 -962 504 -1513 467z"/>
<path d="M2530 4594 c-280 -35 -565 -140 -790 -292 -99 -67 -129 -91 -218
-175 l-54 -50 91 -90 90 -91 53 50 c275 258 634 398 1023 398 387 0 749 -141
1023 -398 l53 -50 91 91 91 91 -57 53 c-244 225 -538 375 -861 439 -86 18
-153 23 -305 25 -107 2 -211 1 -230 -1z"/>
<path d="M380 3264 l0 -544 125 0 125 0 2 308 3 307 38 -245 c21 -135 43 -273
49 -307 l10 -63 88 0 87 0 6 38 c36 257 80 542 86 562 4 14 6 -116 3 -287 l-5
-313 127 0 126 0 0 544 0 543 -172 -5 c-95 -3 -175 -8 -178 -13 -3 -4 -21
-101 -39 -214 -19 -113 -37 -205 -40 -205 -4 0 -25 95 -48 211 -23 116 -43
212 -45 214 -2 1 -81 5 -175 7 l-173 5 0 -543z"/>
<path d="M2647 3803 c-4 -3 -7 -249 -7 -545 l0 -538 135 0 135 0 0 545 0 545
-128 0 c-71 0 -132 -3 -135 -7z"/>
<path d="M2060 3796 c0 -8 -170 -1032 -175 -1053 -5 -23 -5 -23 134 -23 l138
0 7 38 c3 20 6 57 6 82 0 65 7 72 76 68 l59 -3 2 -50 c2 -27 5 -69 9 -92 l5
-43 136 0 136 0 -7 48 c-3 26 -15 97 -27 157 -11 61 -50 281 -88 490 l-67 380
-172 3 c-95 1 -172 1 -172 -2z m199 -428 c6 -79 14 -169 18 -200 l6 -58 -47 0
c-37 0 -46 3 -46 18 0 43 44 382 50 382 3 0 12 -64 19 -142z"/>
<path d="M3217 3619 c-105 -15 -187 -75 -215 -158 -11 -32 -17 -281 -7 -281 3
0 56 24 118 54 l114 53 6 77 c3 43 11 84 17 92 15 17 44 18 57 2 15 -20 24
-93 17 -139 -7 -40 -10 -43 -73 -71 -199 -89 -232 -109 -247 -144 -20 -48 -19
-251 1 -302 30 -74 145 -110 246 -77 40 14 56 15 71 6 11 -7 68 -11 149 -11
l132 0 -6 358 c-3 217 -10 371 -16 393 -34 112 -187 174 -364 148z m111 -625
c-3 -86 -8 -118 -19 -125 -20 -12 -32 -11 -55 5 -16 12 -19 26 -18 102 0 82 2
88 28 110 15 13 36 24 48 24 20 0 20 -4 16 -116z"/>
<path d="M4529 3616 c-25 -7 -59 -22 -75 -35 l-29 -23 -3 26 -3 26 -135 0
-134 0 0 -445 0 -445 135 0 135 0 0 349 c0 376 0 377 52 369 21 -3 24 -10 31
-78 4 -41 7 -202 5 -357 l-3 -283 132 0 133 0 0 341 c0 215 4 347 10 360 6 11
21 19 35 19 40 0 45 -45 45 -397 l0 -323 130 0 130 0 0 360 c0 402 -5 447 -54
496 -60 60 -175 63 -260 7 -31 -20 -43 -23 -55 -14 -71 50 -149 67 -222 47z"/>
<path d="M4060 3605 c-44 -23 -95 -29 -109 -11 -11 13 -38 16 -147 16 l-134 0
0 -445 0 -445 135 0 135 0 0 208 c0 296 7 366 38 397 16 16 41 27 73 31 l49 7
0 128 c0 71 -3 129 -7 129 -5 -1 -19 -7 -33 -15z"/>
<path d="M1290 3606 c0 -2 38 -163 85 -357 47 -194 90 -380 94 -413 13 -95 -2
-140 -69 -199 l-40 -37 134 0 c239 0 256 19 311 352 38 227 105 645 105 653 0
3 -54 5 -119 5 -105 0 -120 -2 -125 -17 -2 -10 -13 -125 -22 -255 -10 -131
-21 -238 -24 -238 -3 0 -23 114 -45 253 l-40 252 -123 3 c-67 1 -122 1 -122
-2z"/>
<path d="M547 2456 c-58 -16 -94 -41 -125 -87 -20 -28 -23 -44 -20 -90 8 -108
58 -142 235 -160 122 -13 153 -22 153 -44 0 -68 -249 -69 -305 0 -12 14 -26
25 -32 25 -10 0 -63 -118 -63 -141 0 -6 9 -9 20 -6 11 3 43 -4 70 -14 162 -62
364 -33 428 61 39 58 27 155 -25 202 -32 29 -101 48 -212 57 -124 11 -141 16
-141 43 0 25 55 48 118 48 57 0 145 -24 164 -45 7 -8 19 -22 27 -31 13 -15 18
-9 52 57 20 41 35 76 33 78 -2 3 -19 5 -37 6 -17 2 -59 13 -92 25 -75 27 -184
35 -248 16z"/>
<path d="M1843 2460 c-63 -13 -117 -45 -160 -94 -47 -53 -63 -101 -63 -187 1
-113 56 -197 162 -244 53 -24 74 -28 154 -28 86 0 98 3 174 39 46 21 92 38
104 39 28 0 24 15 -25 87 -31 45 -44 57 -53 48 -6 -6 -11 -16 -11 -23 0 -7
-24 -24 -54 -39 -69 -36 -154 -38 -217 -7 -115 55 -114 217 1 274 83 41 242
12 265 -49 5 -15 15 -26 22 -26 15 1 99 121 92 132 -3 4 -14 8 -26 8 -11 0
-52 16 -92 35 -59 29 -85 36 -151 40 -44 2 -99 0 -122 -5z"/>
<path d="M1000 2445 c0 -9 7 -18 15 -21 22 -9 22 -462 0 -470 -8 -4 -15 -12
-15 -20 0 -12 47 -14 280 -14 l280 0 0 70 c0 62 -2 70 -19 70 -10 0 -21 -7
-25 -15 -4 -12 -33 -15 -171 -15 l-165 0 0 55 0 55 94 0 c71 0 97 -4 106 -15
7 -8 19 -15 26 -15 11 0 14 19 14 85 0 66 -3 85 -14 85 -8 0 -16 -7 -20 -15
-4 -12 -26 -15 -106 -15 l-100 0 0 45 0 45 160 0 c134 0 162 -3 166 -15 4 -8
12 -15 20 -15 11 0 14 18 14 75 l0 75 -270 0 c-236 0 -270 -2 -270 -15z"/>
<path d="M2290 2441 c0 -10 7 -21 15 -25 13 -4 15 -35 15 -188 0 -206 7 -234
69 -275 51 -34 106 -46 214 -46 87 1 104 4 154 29 95 48 97 54 103 281 4 145
8 197 18 201 6 2 12 12 12 23 0 17 -8 19 -95 19 -87 0 -95 -2 -95 -19 0 -10 7
-22 16 -25 14 -5 15 -28 12 -171 -3 -154 -4 -166 -25 -187 -28 -27 -135 -38
-184 -17 -49 20 -59 57 -59 224 0 120 3 147 15 151 8 4 15 15 15 25 0 17 -9
19 -100 19 -91 0 -100 -2 -100 -19z"/>
<path d="M2970 2442 c0 -11 7 -22 15 -26 13 -4 15 -39 15 -224 0 -183 -3 -222
-15 -232 -8 -7 -15 -19 -15 -26 0 -11 22 -14 100 -14 78 0 100 3 100 14 0 7
-7 19 -15 26 -11 9 -15 33 -15 91 l0 79 54 0 55 0 55 -79 c55 -78 66 -101 46
-101 -5 0 -10 -7 -10 -15 0 -12 20 -15 120 -15 97 0 120 3 120 14 0 8 -9 18
-20 21 -18 6 -124 137 -136 170 -4 9 11 21 41 34 37 17 50 29 67 67 38 87 11
169 -68 209 -35 18 -63 20 -266 23 -222 4 -228 3 -228 -16z m411 -112 c21 -12
25 -50 7 -68 -8 -8 -52 -12 -130 -12 l-118 0 0 45 0 45 111 0 c61 0 119 -5
130 -10z"/>
<path d="M3644 2448 c-4 -6 0 -16 9 -23 15 -11 17 -40 17 -239 0 -192 -2 -228
-15 -232 -8 -4 -15 -12 -15 -20 0 -11 22 -14 105 -14 83 0 105 3 105 14 0 8
-7 16 -15 20 -13 4 -15 40 -15 231 0 191 2 227 15 231 8 4 15 15 15 25 0 17
-9 19 -99 19 -65 0 -102 -4 -107 -12z"/>
<path d="M3910 2385 c0 -61 3 -75 15 -75 9 0 18 7 21 15 5 12 24 15 85 15 l79
0 0 -190 c0 -160 -2 -192 -15 -196 -8 -4 -15 -12 -15 -20 0 -11 22 -14 105
-14 83 0 105 3 105 14 0 8 -7 16 -15 20 -13 4 -15 36 -15 196 l0 190 79 0 c61
0 80 -3 85 -15 3 -8 12 -15 21 -15 12 0 15 14 15 75 l0 75 -275 0 -275 0 0
-75z"/>
<path d="M4495 2450 c-4 -6 14 -29 39 -53 25 -23 80 -89 121 -147 l75 -105 0
-86 c0 -65 -4 -90 -15 -99 -8 -7 -15 -19 -15 -26 0 -11 22 -14 100 -14 78 0
100 3 100 14 0 7 -7 19 -15 26 -11 9 -15 34 -15 99 l0 87 46 64 c103 143 149
200 166 206 10 3 18 14 18 25 0 18 -8 19 -120 19 -105 0 -120 -2 -120 -16 0
-9 7 -22 17 -29 15 -11 12 -18 -25 -69 -22 -31 -43 -57 -47 -57 -4 0 -25 26
-47 57 -37 51 -40 58 -25 69 10 7 17 20 17 29 0 14 -16 16 -124 16 -74 0 -127
-4 -131 -10z"/>
<path d="M1556 1681 l-88 -88 80 -73 c526 -477 1320 -586 1955 -268 167 83
349 210 444 310 l33 34 -89 88 -89 88 -83 -72 c-287 -247 -618 -371 -994 -371
-299 0 -574 80 -820 239 -73 47 -196 144 -229 181 -11 11 -22 21 -25 21 -4 0
-46 -40 -95 -89z"/>
<path d="M1254 1379 l-89 -90 75 -71 c498 -470 1230 -675 1919 -537 391 78
770 272 1051 537 l75 71 -89 90 -89 90 -66 -61 c-744 -685 -1888 -685 -2632 0
l-66 61 -89 -90z"/>
<path d="M947 1072 c-48 -48 -87 -90 -87 -94 0 -12 234 -212 320 -274 354
-256 772 -421 1210 -480 170 -23 502 -23 670 0 456 62 882 235 1243 505 98 74
287 238 287 249 0 4 -39 47 -87 94 l-88 88 -90 -81 c-396 -354 -860 -559
-1380 -610 -164 -16 -447 -6 -598 20 -490 86 -869 274 -1258 620 l-55 50 -87
-87z"/>
</g>
</svg>
